# xmcd
#
# Track frame offsets: 
#        150
#        2477
#        13534
#        39750
#        57490
#        75920
#        96222
#        97992
#        121915
#        134850
#        152585
#        191550
#        205407
#
# Disc length: 2998 seconds
#
# Revision: 0
# Processed by: cddbd v1.5.2PL0 Copyright (c) Steve Scherf et al.
# Submitted via: ExactAudioCopy v0.99pb5
#
DISCID=9b0bb40d
DTITLE=Crowbar  - Best of [1972] 
DYEAR=1900
DGENRE=
TTITLE0=The frenchman's Cherokee boogie incident
TTITLE1=Let the four winds blow
TTITLE2=Cane on the Brazos
TTITLE3=In the dancing hold
TTITLE4=Where were you?
TTITLE5=Lay one down
TTITLE6=Oh never be a dodo
TTITLE7=Murder in the first degree
TTITLE8=Trilby
TTITLE9=Dead head out of St. John's
TTITLE10=Tits up on the pavement
TTITLE11=Happy people
TTITLE12=Oh, what a feeling
EXTD=
EXTT0=
EXTT1=
EXTT2=
EXTT3=
EXTT4=
EXTT5=
EXTT6=
EXTT7=
EXTT8=
EXTT9=
EXTT10=
EXTT11=
EXTT12=
PLAYORDER=
